<svg xmlns="http://www.w3.org/2000/svg" width="600" height="400" viewBox="0 0 600 400">
  <defs>
    <linearGradient id="gameBg" x1="0%" y1="0%" x2="100%" y2="100%">
      <stop offset="0%" style="stop-color:#2d1b69;stop-opacity:1" />
      <stop offset="50%" style="stop-color:#11998e;stop-opacity:1" />
      <stop offset="100%" style="stop-color:#38ada9;stop-opacity:1" />
    </linearGradient>
    <radialGradient id="actionGlow" cx="50%" cy="50%" r="40%">
      <stop offset="0%" style="stop-color:#FFD700;stop-opacity:0.8" />
      <stop offset="100%" style="stop-color:#FF8C00;stop-opacity:0.2" />
    </radialGradient>
    <filter id="blur">
      <feGaussianBlur in="SourceGraphic" stdDeviation="1"/>
    </filter>
  </defs>
  
  <!-- 背景 -->
  <rect width="600" height="400" fill="url(#gameBg)"/>
  
  <!-- 地面 -->
  <rect x="0" y="300" width="600" height="100" fill="#2c3e50" opacity="0.8"/>
  
  <!-- 角色轮廓 -->
  <ellipse cx="300" cy="250" rx="40" ry="60" fill="#8B4513"/>
  <circle cx="300" cy="200" r="25" fill="#CD853F"/>
  
  <!-- 武器 -->
  <rect x="350" y="180" width="8" height="120" rx="4" fill="#8B4513"/>
  <ellipse cx="354" cy="170" rx="15" ry="8" fill="#FFD700"/>
  
  <!-- 动作效果 -->
  <ellipse cx="300" cy="200" rx="80" ry="40" fill="url(#actionGlow)" filter="url(#blur)">
    <animate attributeName="rx" values="80;120;80" dur="2s" repeatCount="indefinite"/>
    <animate attributeName="ry" values="40;60;40" dur="2s" repeatCount="indefinite"/>
  </ellipse>
  
  <!-- 粒子效果 -->
  <g opacity="0.7">
    <circle cx="250" cy="180" r="3" fill="#FFD700">
      <animate attributeName="cy" values="180;120;180" dur="1.5s" repeatCount="indefinite"/>
    </circle>
    <circle cx="350" cy="190" r="2" fill="#FF8C00">
      <animate attributeName="cy" values="190;130;190" dur="2s" repeatCount="indefinite"/>
    </circle>
    <circle cx="280" cy="160" r="2.5" fill="#FFD700">
      <animate attributeName="cy" values="160;100;160" dur="1.8s" repeatCount="indefinite"/>
    </circle>
  </g>
  
  <!-- 环境元素 -->
  <rect x="50" y="250" width="20" height="50" fill="#654321"/>
  <ellipse cx="60" cy="240" rx="25" ry="15" fill="#228B22" opacity="0.6"/>
  
  <rect x="500" y="260" width="25" height="40" fill="#654321"/>
  <ellipse cx="512" cy="250" rx="30" ry="18" fill="#228B22" opacity="0.6"/>
  
  <!-- UI元素模拟 -->
  <rect x="20" y="20" width="100" height="8" rx="4" fill="#e74c3c"/>
  <rect x="20" y="20" width="75" height="8" rx="4" fill="#c0392b"/>
  
  <rect x="20" y="40" width="80" height="6" rx="3" fill="#3498db"/>
  <rect x="20" y="40" width="60" height="6" rx="3" fill="#2980b9"/>
  
  <!-- 标题 -->
  <text x="300" y="380" font-family="serif" font-size="16" font-weight="bold" text-anchor="middle" fill="#FFD700">战斗场景</text>
</svg>